<svg width="100%" height="100%" viewBox="0 0 18 18" fill="none" xmlns="http://www.w3.org/2000/svg">
<path d="M9 18C13.9711 18 18 13.9711 18 9C18 4.02891 13.9711 0 9 0C4.02891 0 0 4.02891 0 9C0 13.9711 4.02891 18 9 18ZM12.9727 7.34766L8.47266 11.8477C8.14219 12.1781 7.60781 12.1781 7.28086 11.8477L5.03086 9.59766C4.70039 9.26719 4.70039 8.73281 5.03086 8.40586C5.36133 8.07891 5.8957 8.07539 6.22266 8.40586L7.875 10.0582L11.7773 6.15234C12.1078 5.82188 12.6422 5.82188 12.9691 6.15234C13.2961 6.48281 13.2996 7.01719 12.9691 7.34414L12.9727 7.34766Z" fill="#17DA9D"/>
</svg>
