<svg width="100%" height="100%" viewBox="0 0 18 18" fill="none" xmlns="http://www.w3.org/2000/svg">
<path d="M13.3262 7.70121L13.6798 7.34763L13.6089 7.2768C13.8183 6.78647 13.7178 6.19809 13.3246 5.80069C12.8009 5.27138 11.9485 5.27411 11.4238 5.79879L11.4236 5.79895L7.87484 9.35094L6.5781 8.0542C6.57775 8.05385 6.5774 8.0535 6.57706 8.05316C6.05093 7.52251 5.20066 7.53451 4.6792 8.05042C4.14989 8.5741 4.15263 9.42653 4.67731 9.95121L6.92542 12.1993C6.92577 12.1997 6.92611 12.2 6.92646 12.2004C7.45022 12.7286 8.30188 12.7255 8.82621 12.2012L13.3262 7.70121ZM17.5 9C17.5 13.695 13.695 17.5 9 17.5C4.30505 17.5 0.5 13.695 0.5 9C0.5 4.30505 4.30505 0.5 9 0.5C13.695 0.5 17.5 4.30505 17.5 9Z" fill="white" stroke="#17DA9D"/>
</svg>
